<svg width="53" height="13" viewBox="0 0 53 13" fill="none" id="contacts-navbar" xmlns="http://www.w3.org/2000/svg">
<g clip-path="url(#clip0_1_15969)">
<path d="M6.40796 7.27975C6.27072 7.41708 6.04815 7.41708 5.91082 7.27975L4.31323 5.68216C4.24731 5.61624 4.21023 5.52679 4.21023 5.43359C4.21023 5.3403 4.24731 5.25095 4.31323 5.18494L4.59723 4.90103L3.76309 4.06689L3.07974 4.75024C2.84976 4.98022 2.84985 5.3544 3.07974 5.58438L6.0086 8.51343C6.11929 8.62411 6.26742 8.685 6.42572 8.685C6.58401 8.685 6.73214 8.62402 6.84283 8.51334L7.52618 7.83008L6.69204 6.99585L6.40796 7.27975Z" fill="#5D6C7B"/>
<path d="M11.4957 4.73541C11.4957 3.60831 11.0541 2.54593 10.2519 1.74384C9.4498 0.941742 8.38742 0.5 7.26041 0.5H4.75085C4.75085 0.5 4.75085 0.5 4.75076 0.5C3.62384 0.5 2.56146 0.941742 1.75946 1.74374C0.957367 2.54584 0.515625 3.60831 0.515625 4.73532V6.70792C0.515625 7.58069 0.78186 8.42032 1.28558 9.13599C1.72998 9.76733 2.32764 10.2604 3.02444 10.5732V11.7062C3.02444 12.2921 3.35248 12.4999 3.63336 12.5C3.83405 12.5 4.03482 12.4009 4.23019 12.2057L5.49243 10.9432H7.2605C8.38751 10.9432 9.44989 10.5015 10.252 9.6994C11.0541 8.89731 11.4958 7.83493 11.4958 6.70792L11.4957 4.73541ZM8.27197 8.07864L7.33997 9.01056C7.09644 9.25409 6.77179 9.38803 6.42572 9.38803C6.07965 9.38803 5.755 9.254 5.51147 9.01056L2.58252 6.08151C2.07852 5.57733 2.07852 4.75711 2.58252 4.25302L3.51453 3.32111C3.58044 3.2551 3.6698 3.21811 3.76309 3.21811C3.85629 3.21811 3.94574 3.2551 4.01166 3.32111L5.34302 4.65247C5.40894 4.71838 5.44592 4.80783 5.44592 4.90103C5.44592 4.99423 5.40894 5.08368 5.34293 5.1496L5.05902 5.4335L6.15948 6.53397L6.44348 6.24997C6.58081 6.11273 6.80338 6.11273 6.94061 6.25006L8.27197 7.58142C8.33798 7.64734 8.37497 7.73679 8.37497 7.82999C8.37497 7.92328 8.33798 8.01273 8.27197 8.07864ZM5.73944 3.91299C5.73944 3.7189 5.89682 3.56143 6.091 3.56143C7.30911 3.56143 8.30017 4.5524 8.30017 5.77042C8.30017 5.9646 8.14279 6.12198 7.94861 6.12198C7.75452 6.12198 7.59705 5.9646 7.59705 5.77042C7.59705 4.94012 6.92148 4.26456 6.091 4.26456C5.89682 4.26456 5.73944 4.10718 5.73944 3.91299ZM9.45474 6.12216C9.26056 6.12216 9.10318 5.96469 9.10318 5.7706C9.10327 4.96594 8.78989 4.20953 8.22098 3.64053C7.65198 3.07162 6.89557 2.75824 6.09091 2.75824C5.89682 2.75824 5.73935 2.60086 5.73935 2.40668C5.73935 2.21259 5.89682 2.05511 6.09091 2.05511C7.08334 2.05511 8.01636 2.44165 8.71811 3.1434C9.41995 3.84515 9.8064 4.77817 9.8063 5.7706C9.8063 5.96469 9.64893 6.12216 9.45474 6.12216Z" fill="#5D6C7B"/>
</g>
<g clip-path="url(#clip1_1_15969)">
<path d="M26.4968 0.503787C23.1851 0.50449 20.501 3.18978 20.5017 6.50153C20.5019 7.64828 20.831 8.7709 21.4498 9.73633L20.5169 12.1569C20.4672 12.2856 20.5313 12.4303 20.66 12.48C20.6888 12.4911 20.7194 12.4968 20.7502 12.4967C20.7789 12.4969 20.8073 12.492 20.8342 12.4822L23.3327 11.5902C26.1438 13.341 29.842 12.4815 31.5928 9.67033C33.3436 6.85918 32.484 3.16104 29.6729 1.41026C28.7199 0.81675 27.6195 0.502686 26.4968 0.503787Z" fill="#5D6C7B"/>
<path d="M29.3556 7.52445C29.3556 7.52445 28.7434 7.22462 28.3602 7.02475C27.9264 6.80138 27.4167 7.21963 27.1769 7.4575C26.8036 7.3141 26.4626 7.09767 26.174 6.82087C25.8971 6.53227 25.6807 6.19131 25.5373 5.81796C25.7752 5.57761 26.1924 5.06841 25.9701 4.63467C25.7727 4.2509 25.4704 3.63877 25.4704 3.63877C25.428 3.55458 25.3418 3.50144 25.2475 3.50134H24.7478C24.0201 3.62703 23.491 4.262 23.4986 5.00046C23.4986 5.78498 24.4375 7.29211 25.0706 7.92572C25.7038 8.55933 27.2109 9.49779 27.9959 9.49779C28.7343 9.50538 29.3693 8.97624 29.495 8.24854V7.74884C29.4951 7.65356 29.441 7.56654 29.3556 7.52445Z" fill="#F7F7F7"/>
</g>
<g clip-path="url(#clip2_1_15969)">
<path d="M45.7085 8.09058L45.51 10.8826C45.794 10.8826 45.917 10.7606 46.0645 10.6141L47.396 9.34158L50.155 11.3621C50.661 11.6441 51.0175 11.4956 51.154 10.8966L52.965 2.41058L52.9655 2.41008C53.126 1.66208 52.695 1.36958 52.202 1.55308L41.557 5.62858C40.8305 5.91058 40.8415 6.31558 41.4335 6.49908L44.155 7.34558L50.4765 3.39008C50.774 3.19308 51.0445 3.30208 50.822 3.49908L45.7085 8.09058Z" fill="#5D6C7B"/>
</g>
<defs>
<clipPath id="clip0_1_15969">
<rect width="12" height="12" fill="white" transform="translate(0 0.5)"/>
</clipPath>
<clipPath id="clip1_1_15969">
<rect width="12" height="12" fill="white" transform="translate(20.5 0.5)"/>
</clipPath>
<clipPath id="clip2_1_15969">
<rect width="12" height="12" fill="white" transform="translate(41 0.5)"/>
</clipPath>
</defs>
</svg>
