<svg width="268" height="24" viewBox="0 0 268 24" fill="none" id="group-media" xmlns="http://www.w3.org/2000/svg">
<rect x="0.243409" y="0.559815" width="33.5905" height="22.8805" rx="2.6775" fill="white" stroke="#EAEBED" stroke-width="0.486818"/>
<path fill-rule="evenodd" clip-rule="evenodd" d="M16.0943 15.659V12.7177H17.6124C18.2345 12.7177 18.7595 12.5093 19.1875 12.0982L19.2903 11.994C20.0721 11.1428 20.0208 9.81692 19.1875 9.02948C18.7709 8.6126 18.2002 8.38679 17.6124 8.39837H15.1755V15.659H16.0943ZM16.0944 11.826V9.28998H17.6356C17.9666 9.28998 18.2806 9.41736 18.5146 9.64896C19.0112 10.1353 19.0226 10.9459 18.5432 11.4496C18.3091 11.6986 17.9781 11.8376 17.6356 11.826H16.0944ZM23.5763 11.0791C23.1825 10.7143 22.646 10.5291 21.9669 10.5291C21.0937 10.5291 20.4374 10.8533 20.0037 11.496L20.8141 12.0113C21.1108 11.5713 21.516 11.3512 22.0297 11.3512C22.355 11.3512 22.6689 11.4728 22.9143 11.6929C23.154 11.9013 23.2909 12.2024 23.2909 12.5208V12.7351C22.9371 12.5382 22.4919 12.434 21.9441 12.434C21.3049 12.434 20.7912 12.5845 20.4089 12.8914C20.0265 13.1983 19.8325 13.6036 19.8325 14.1189C19.8211 14.5878 20.0208 15.0337 20.3746 15.3348C20.7342 15.659 21.1907 15.8211 21.7272 15.8211C22.3607 15.8211 22.8629 15.5374 23.2453 14.97H23.2852V15.659H24.1641V12.5961C24.1641 11.9534 23.9701 11.4439 23.5763 11.0791ZM21.0825 14.7442C20.8941 14.6053 20.78 14.3794 20.78 14.1363C20.78 13.8641 20.9055 13.6383 21.151 13.4588C21.4021 13.2793 21.7161 13.1867 22.0871 13.1867C22.6008 13.1809 23.0003 13.2967 23.2857 13.5283C23.2857 13.922 23.1316 14.2636 22.8291 14.5531C22.5551 14.8311 22.1841 14.9874 21.796 14.9874C21.5391 14.9932 21.288 14.9063 21.0825 14.7442ZM26.1388 17.8418L29.2091 10.6912H28.2104L26.7894 14.2578H26.7722L25.3169 10.6912H24.3182L26.3328 15.3405L25.1914 17.8418H26.1388Z" fill="#282739"/>
<path d="M12.9222 12.0808C12.9222 11.7971 12.8994 11.5134 12.8537 11.2355H8.97864V12.8393H11.1987C11.1074 13.3546 10.8106 13.8178 10.3769 14.1073V15.1495H11.7009C12.477 14.4258 12.9222 13.3546 12.9222 12.0808Z" fill="#4285F4"/>
<path d="M8.97882 16.157C10.086 16.157 11.0219 15.7864 11.7011 15.1495L10.377 14.1073C10.0061 14.3621 9.5324 14.5069 8.97882 14.5069C7.9059 14.5069 6.99848 13.7715 6.67318 12.7872H5.3092V13.8642C6.00546 15.2711 7.42651 16.157 8.97882 16.157Z" fill="#34A853"/>
<path d="M6.67333 12.7872C6.50209 12.2719 6.50209 11.7103 6.67333 11.1892V10.118H5.30913C4.72122 11.2934 4.72122 12.683 5.30913 13.8584L6.67333 12.7872Z" fill="#FBBC04"/>
<path d="M8.97882 9.46949C9.56665 9.45791 10.1316 9.68372 10.554 10.0948L11.7296 8.90207C10.982 8.19569 10.0004 7.80776 8.97882 7.81934C7.42651 7.81934 6.00546 8.711 5.3092 10.118L6.67318 11.1949C6.99848 10.2048 7.9059 9.46949 8.97882 9.46949Z" fill="#EA4335"/>
<rect x="39.1889" y="0.559815" width="33.5905" height="22.8805" rx="2.6775" fill="white" stroke="#EAEBED" stroke-width="0.486818"/>
<path fill-rule="evenodd" clip-rule="evenodd" d="M48.273 8.43961C47.9869 8.78223 47.5293 9.05246 47.0716 9.01386C47.0144 8.5506 47.2385 8.05838 47.5007 7.75437C47.7867 7.4021 48.2873 7.15116 48.6925 7.13186C48.7401 7.61442 48.5542 8.08734 48.273 8.43961ZM48.6877 9.10553C48.2845 9.08204 47.9166 9.22827 47.6195 9.34638C47.4282 9.42239 47.2663 9.48676 47.1431 9.48676C47.0049 9.48676 46.8362 9.41895 46.6469 9.34282C46.3989 9.24306 46.1152 9.12901 45.8178 9.13449C45.1361 9.14414 44.5021 9.53501 44.1541 10.1575C43.439 11.4025 43.9682 13.2459 44.6594 14.2593C44.9979 14.7612 45.4031 15.3113 45.937 15.292C46.1719 15.283 46.3409 15.2104 46.5157 15.1353C46.7171 15.0489 46.9262 14.959 47.2528 14.959C47.568 14.959 47.768 15.0465 47.96 15.1305C48.1425 15.2104 48.3178 15.287 48.578 15.2823C49.131 15.2727 49.479 14.7805 49.8175 14.2786C50.1828 13.74 50.3433 13.2143 50.3676 13.1345L50.3676 13.1345L50.3705 13.1253C50.3699 13.1247 50.3654 13.1226 50.3574 13.1189C50.2353 13.0623 49.3021 12.6298 49.2931 11.4701C49.2841 10.4967 50.0334 10.0034 50.1513 9.92581L50.1513 9.9258C50.1585 9.92108 50.1633 9.9179 50.1655 9.91624C49.6888 9.20204 48.9451 9.12483 48.6877 9.10553ZM52.5158 15.2293V7.7061H55.3046C56.7442 7.7061 57.7501 8.70983 57.7501 10.1768C57.7501 11.6438 56.7252 12.6572 55.2664 12.6572H53.6694V15.2293H52.5158ZM53.6693 8.69055H54.9994C56.0005 8.69055 56.5725 9.23102 56.5725 10.1817C56.5725 11.1323 56.0005 11.6776 54.9946 11.6776H53.6693V8.69055ZM61.5591 14.3269C61.254 14.9156 60.5819 15.2872 59.8573 15.2872C58.7847 15.2872 58.0362 14.6406 58.0362 13.6658C58.0362 12.7007 58.7608 12.1457 60.1004 12.0637L61.5401 11.9768V11.5618C61.5401 10.949 61.1444 10.616 60.4389 10.616C59.8573 10.616 59.433 10.92 59.3472 11.3833H58.3079C58.3413 10.4085 59.2471 9.69913 60.4722 9.69913C61.7927 9.69913 62.6508 10.3988 62.6508 11.4846V15.2293H61.583V14.3269H61.5591ZM60.1671 14.3944C59.5521 14.3944 59.1612 14.0952 59.1612 13.6368C59.1612 13.1639 59.5378 12.8888 60.2576 12.8454L61.54 12.7634V13.188C61.54 13.8926 60.9489 14.3944 60.1671 14.3944ZM66.1928 15.5237C65.7304 16.8411 65.2012 17.2754 64.0762 17.2754C63.9904 17.2754 63.7043 17.2657 63.6376 17.2464V16.344C63.7091 16.3537 63.8855 16.3633 63.9761 16.3633C64.4862 16.3633 64.7722 16.1462 64.9486 15.5816L65.0534 15.2486L63.0989 9.77151H64.305L65.6636 14.2159H65.6875L67.0461 9.77151H68.2189L66.1928 15.5237Z" fill="#282739"/>
<rect x="78.1343" y="0.559815" width="33.5905" height="22.8805" rx="2.6775" fill="white" stroke="#EAEBED" stroke-width="0.486818"/>
<path fill-rule="evenodd" clip-rule="evenodd" d="M88.2361 16.146H86.1716L84.6236 10.24C84.5501 9.96837 84.3941 9.7282 84.1646 9.615C83.5919 9.33053 82.9608 9.10413 82.2723 8.98995V8.76257H85.5979C86.0569 8.76257 86.4011 9.10413 86.4585 9.50082L87.2617 13.761L89.3252 8.76257H91.3322L88.2361 16.146ZM92.4797 16.146H90.53L92.1354 8.76257H94.0851L92.4797 16.146ZM96.6075 10.808C96.6649 10.4104 97.0091 10.183 97.4107 10.183C98.0418 10.1259 98.7293 10.2401 99.303 10.5236L99.6473 8.93388C99.0735 8.7065 98.4424 8.59232 97.8697 8.59232C95.9774 8.59232 94.6004 9.61503 94.6004 11.0344C94.6004 12.1142 95.5758 12.6812 96.2643 13.0228C97.0091 13.3633 97.296 13.5907 97.2386 13.9313C97.2386 14.4422 96.6649 14.6695 96.0921 14.6695C95.4037 14.6695 94.7152 14.4993 94.0851 14.2148L93.7409 15.8055C94.4293 16.0889 95.1742 16.2031 95.8626 16.2031C97.9844 16.2592 99.303 15.2375 99.303 13.7039C99.303 11.7727 96.6075 11.6595 96.6075 10.808ZM106.126 16.146L104.578 8.76257H102.916C102.571 8.76257 102.227 8.98995 102.112 9.33053L99.2457 16.146H101.253L101.653 15.0672H104.119L104.349 16.146H106.126ZM103.202 10.751L103.775 13.5337H102.17L103.202 10.751Z" fill="#172B85"/>
<rect x="117.08" y="0.559815" width="33.5905" height="22.8805" rx="2.6775" fill="white" stroke="#EAEBED" stroke-width="0.486818"/>
<path fill-rule="evenodd" clip-rule="evenodd" d="M138.377 18.8447C142.046 18.8447 145.021 15.8356 145.021 12.1237C145.021 8.41178 142.046 5.40268 138.377 5.40268C136.732 5.40268 135.227 6.00707 134.067 7.00825C132.907 6.00709 131.402 5.40271 129.758 5.40271C126.088 5.40271 123.114 8.4118 123.114 12.1237C123.114 15.8356 126.088 18.8447 129.758 18.8447C131.402 18.8447 132.907 18.2403 134.067 17.2391C135.227 18.2403 136.732 18.8447 138.377 18.8447Z" fill="#ED0006"/>
<path fill-rule="evenodd" clip-rule="evenodd" d="M134.067 17.2391C135.496 16.0064 136.402 14.172 136.402 12.1237C136.402 10.0753 135.496 8.24099 134.067 7.00824C135.227 6.00707 136.732 5.40268 138.377 5.40268C142.046 5.40268 145.021 8.41178 145.021 12.1237C145.021 15.8356 142.046 18.8447 138.377 18.8447C136.732 18.8447 135.227 18.2403 134.067 17.2391Z" fill="#F9A000"/>
<path fill-rule="evenodd" clip-rule="evenodd" d="M134.067 17.2391C135.496 16.0063 136.402 14.172 136.402 12.1237C136.402 10.0753 135.496 8.24102 134.067 7.00826C132.639 8.24102 131.733 10.0753 131.733 12.1237C131.733 14.172 132.639 16.0063 134.067 17.2391Z" fill="#FF5E00"/>
<rect x="156.025" y="0.559815" width="33.5905" height="22.8805" rx="2.6775" fill="white" stroke="#EAEBED" stroke-width="0.486818"/>
<path d="M175.347 12.1237C175.347 15.8356 172.372 18.8447 168.703 18.8447C165.034 18.8447 162.059 15.8356 162.059 12.1237C162.059 8.4118 165.034 5.40271 168.703 5.40271C172.372 5.40271 175.347 8.4118 175.347 12.1237Z" fill="#ED0006"/>
<path d="M183.966 12.1237C183.966 15.8356 180.991 18.8447 177.322 18.8447C173.653 18.8447 170.678 15.8356 170.678 12.1237C170.678 8.4118 173.653 5.40271 177.322 5.40271C180.991 5.40271 183.966 8.4118 183.966 12.1237Z" fill="#0099DF"/>
<path fill-rule="evenodd" clip-rule="evenodd" d="M173.013 17.2391C174.441 16.0063 175.347 14.172 175.347 12.1237C175.347 10.0753 174.441 8.24102 173.013 7.00826C171.584 8.24102 170.678 10.0753 170.678 12.1237C170.678 14.172 171.584 16.0063 173.013 17.2391Z" fill="#6C6BBD"/>
<rect x="194.971" y="0.559815" width="33.5905" height="22.8805" rx="2.6775" fill="white" stroke="#EAEBED" stroke-width="0.486818"/>
<path fill-rule="evenodd" clip-rule="evenodd" d="M207.547 16.0491C207.7 15.9699 207.959 15.8659 208.234 15.8659C208.864 15.8659 209.205 16.2916 209.205 17.0837C209.205 18.0091 208.748 18.4596 208.01 18.4596C207.741 18.4596 207.324 18.3754 207.019 18.2168V14.7622L207.547 14.6384V16.0491ZM207.542 18.0337C207.705 18.103 207.883 18.1128 208.01 18.1128C208.387 18.1128 208.671 17.8852 208.671 17.0836C208.671 16.4548 208.437 16.2519 208.097 16.2519C207.893 16.2519 207.746 16.3064 207.542 16.4153V18.0337ZM202.126 15.9301H202.162L202.853 18.4001H203.403L204.227 14.8906H203.632L203.113 17.5091H203.077L202.37 14.8906H201.918L201.257 17.5091H201.221L200.652 14.8906H200.082L200.906 18.4001H201.455L202.126 15.9301ZM206.48 18.2317V17.8555C206.2 18.0189 205.946 18.1129 205.671 18.1129C205.148 18.1129 204.899 17.8504 204.899 17.2566H206.556V17.0735C206.556 16.2668 206.164 15.8658 205.529 15.8658C204.766 15.8658 204.375 16.4103 204.375 17.1625C204.375 17.9447 204.726 18.4595 205.58 18.4595C205.946 18.4595 206.251 18.3605 206.48 18.2317ZM206.073 16.9251H204.909C204.965 16.4302 205.203 16.1975 205.514 16.1975C205.788 16.1975 206.048 16.4053 206.073 16.9251ZM211.544 17.6576H211.519L210.38 14.8906H209.764V18.4001H210.222V15.9154H210.268L211.305 18.4001H211.631L212.668 15.8559H212.714V18.4001H213.263V14.8906H212.632L211.544 17.6576ZM213.822 17.1625C213.822 16.2963 214.311 15.8658 214.982 15.8658C215.653 15.8658 216.141 16.2963 216.141 17.1625C216.141 18.0091 215.678 18.4595 214.982 18.4595C214.285 18.4595 213.822 18.0091 213.822 17.1625ZM215.607 17.1625C215.607 16.4944 215.327 16.2124 214.982 16.2124C214.646 16.2124 214.356 16.4944 214.356 17.1625C214.356 17.8409 214.621 18.1129 214.982 18.1129C215.343 18.1129 215.607 17.8409 215.607 17.1625ZM217.921 15.8658C217.336 15.8658 216.853 16.0984 216.624 16.2321V18.4001H217.153V16.44C217.311 16.3511 217.57 16.2618 217.773 16.2618C218.033 16.2618 218.231 16.3311 218.231 16.7221V18.4001H218.76V16.6082C218.76 16.0984 218.531 15.8658 217.921 15.8658ZM221.338 17.8555V18.2317C221.109 18.3605 220.804 18.4595 220.438 18.4595C219.584 18.4595 219.233 17.9447 219.233 17.1625C219.233 16.4103 219.624 15.8658 220.387 15.8658C221.023 15.8658 221.414 16.2668 221.414 17.0735V17.2566H219.757C219.757 17.8504 220.006 18.1129 220.529 18.1129C220.804 18.1129 221.058 18.0189 221.338 17.8555ZM219.767 16.9251H220.931C220.906 16.4053 220.646 16.1975 220.372 16.1975C220.061 16.1975 219.823 16.4302 219.767 16.9251ZM223.936 15.95H223.392L222.812 17.7713H222.782L222.131 15.95H221.572L222.548 18.4248C222.426 18.791 222.213 19.0585 221.867 19.0585V19.4642C222.451 19.4642 222.762 19.108 223.016 18.4248L223.936 15.95Z" fill="#0068A3"/>
<path fill-rule="evenodd" clip-rule="evenodd" d="M211.668 4.51599C212.368 4.51599 213.031 4.67461 213.621 4.95623C213.714 4.99903 213.806 5.04613 213.899 5.09813L213.489 5.45555L212.872 4.83516L211.832 5.73839L211.214 5.08193L209.276 6.7823L210.518 8.11508L210.03 8.53308L211.254 9.86788L210.769 10.2849L212.517 12.1795L213.555 11.2493L214.453 12.2462C214.274 12.3812 214.08 12.5083 213.866 12.6258C213.217 12.986 212.467 13.1923 211.668 13.1923C209.214 13.1923 207.212 11.2433 207.212 8.85426C207.212 6.4647 209.214 4.51599 211.668 4.51599ZM210.856 8.58003L211.916 7.65107L212.87 8.68289L211.811 9.61151L210.856 8.58003ZM212.67 9.43385L211.61 10.3626L212.564 11.3944L213.624 10.4654L212.67 9.43385ZM210.098 6.81844L211.158 5.88974L212.112 6.9213L211.052 7.85001L210.098 6.81844ZM212.837 5.62202L212.043 6.31849L212.758 7.09242L213.553 6.3957L212.837 5.62202ZM213.455 9.50921L214.25 8.81249L214.966 9.58634L214.171 10.2829L213.455 9.50921ZM214.949 10.3752L214.154 11.072L214.87 11.8454L215.665 11.1488L214.949 10.3752ZM214.474 7.4903L215.004 7.0259L215.481 7.54169L214.951 8.006L214.474 7.4903ZM214.327 5.49343L213.797 5.95773L214.274 6.47352L214.804 6.00921L214.327 5.49343ZM215.152 9.02272L215.682 8.55832L216.159 9.07402L215.629 9.53841L215.152 9.02272ZM213.57 7.17756L212.775 7.87437L213.491 8.64778L214.286 7.95123L213.57 7.17756Z" fill="#0068A3"/>
<rect x="233.916" y="0.559815" width="33.5905" height="22.8805" rx="2.6775" fill="white" stroke="#EAEBED" stroke-width="0.486818"/>
<path fill-rule="evenodd" clip-rule="evenodd" d="M243.409 11.5788C243.409 15.3487 246.484 18.4232 250.29 18.4232C250.757 18.4232 251.225 18.3823 251.761 18.3353C252.36 18.2829 253.045 18.2229 253.914 18.2036C255.231 18.2036 256.659 18.6794 258.233 20.0702C258.379 20.2167 258.599 20.0336 258.452 19.8506C256.878 17.9108 255.451 17.5448 254.023 17.2154C252.267 16.8127 251.352 15.8611 250.729 14.7631C250.62 14.5435 250.546 14.5801 250.546 14.8729C250.51 15.3121 250.546 15.7147 250.62 16.1173H250.4C247.911 16.1173 245.861 14.0677 245.861 11.5788C245.861 9.0899 247.911 7.04023 250.4 7.04023C252.889 7.04023 254.938 9.0899 254.938 11.5788C254.938 11.7252 254.938 11.9082 254.902 12.0912C254.536 12.018 253.914 12.018 253.438 12.0546C253.255 12.0546 253.255 12.1278 253.401 12.1644C254.865 12.4572 255.89 13.3722 256.146 15.0559C256.146 15.1291 256.183 15.1291 256.22 15.0925C256.805 14.0677 257.171 12.8598 257.171 11.5788C257.171 7.77225 254.097 4.69775 250.29 4.69775C246.484 4.69775 243.409 7.80885 243.409 11.5788ZM255.268 14.3971C255.524 14.5069 255.634 14.8729 255.634 15.0559C255.67 15.3487 255.597 15.4951 255.487 15.4951C255.378 15.4951 255.231 15.3853 255.085 15.1291C254.938 14.8729 254.865 14.6167 254.938 14.4703C255.048 14.3971 255.158 14.3605 255.268 14.3971ZM253.767 15.5317C253.914 15.5317 254.097 15.6049 254.28 15.7513C254.572 16.0075 254.682 16.3004 254.536 16.52C254.463 16.6298 254.28 16.703 254.133 16.703C253.95 16.703 253.767 16.6298 253.657 16.52C253.365 16.2638 253.291 15.8977 253.474 15.6781C253.511 15.6049 253.621 15.5317 253.767 15.5317Z" fill="#F28A1A"/>
</svg>
