<svg viewBox="0 0 20 12" fill="none" id="vesi" xmlns="http://www.w3.org/2000/svg">
<mask id="path-1-inside-1_902_283" fill="white">
<path d="M19.4141 7.26396H18.7766L16.7349 2.32556C17.0208 2.28666 17.2413 2.0422 17.2413 1.74564C17.2413 1.42205 16.979 1.1597 16.6554 1.1597H11.6177C11.3769 0.490914 10.7363 0.0113831 9.98559 0.0113831C9.23488 0.0113831 8.59422 0.490953 8.3534 1.1597H3.34465C3.02105 1.1597 2.75871 1.42205 2.75871 1.74564C2.75871 2.0422 2.97926 2.28666 3.26512 2.32556L1.22344 7.26396H0.585938C0.262344 7.26396 0 7.5263 0 7.8499C0 10.132 1.85668 11.9887 4.13883 11.9887C6.42098 11.9887 8.27766 10.132 8.27766 7.8499C8.27766 7.5263 8.01531 7.26396 7.69172 7.26396H7.05418L5.01504 2.33158H8.3534C8.59422 3.00037 9.23484 3.4799 9.98559 3.4799C10.7363 3.4799 11.3769 3.00037 11.6177 2.33158H14.985L12.9459 7.26396H12.3083C11.9847 7.26396 11.7224 7.5263 11.7224 7.8499C11.7224 10.132 13.5791 11.9887 15.8612 11.9887C18.1434 11.9887 20 10.132 20 7.8499C20 7.5263 19.7377 7.26396 19.4141 7.26396ZM4.13883 10.8169C2.70332 10.8169 1.5027 9.7922 1.22996 8.43584H7.0477C6.77496 9.7922 5.57434 10.8169 4.13883 10.8169ZM5.78613 7.26396H2.49152L4.13883 3.27943L5.78613 7.26396ZM9.98555 2.30802C9.67543 2.30802 9.42316 2.05576 9.42316 1.74564C9.42316 1.43552 9.67543 1.18326 9.98555 1.18326C10.2956 1.18326 10.5479 1.43552 10.5479 1.74564C10.5479 2.05576 10.2957 2.30802 9.98555 2.30802ZM15.8612 3.27943L17.5085 7.26396H14.2139L15.8612 3.27943ZM15.8612 10.8169C14.4257 10.8169 13.225 9.7922 12.9523 8.43584H18.77C18.4973 9.7922 17.2966 10.8169 15.8612 10.8169Z"/>
</mask>
<path d="M19.4141 7.26396H18.7766L16.7349 2.32556C17.0208 2.28666 17.2413 2.0422 17.2413 1.74564C17.2413 1.42205 16.979 1.1597 16.6554 1.1597H11.6177C11.3769 0.490914 10.7363 0.0113831 9.98559 0.0113831C9.23488 0.0113831 8.59422 0.490953 8.3534 1.1597H3.34465C3.02105 1.1597 2.75871 1.42205 2.75871 1.74564C2.75871 2.0422 2.97926 2.28666 3.26512 2.32556L1.22344 7.26396H0.585938C0.262344 7.26396 0 7.5263 0 7.8499C0 10.132 1.85668 11.9887 4.13883 11.9887C6.42098 11.9887 8.27766 10.132 8.27766 7.8499C8.27766 7.5263 8.01531 7.26396 7.69172 7.26396H7.05418L5.01504 2.33158H8.3534C8.59422 3.00037 9.23484 3.4799 9.98559 3.4799C10.7363 3.4799 11.3769 3.00037 11.6177 2.33158H14.985L12.9459 7.26396H12.3083C11.9847 7.26396 11.7224 7.5263 11.7224 7.8499C11.7224 10.132 13.5791 11.9887 15.8612 11.9887C18.1434 11.9887 20 10.132 20 7.8499C20 7.5263 19.7377 7.26396 19.4141 7.26396ZM4.13883 10.8169C2.70332 10.8169 1.5027 9.7922 1.22996 8.43584H7.0477C6.77496 9.7922 5.57434 10.8169 4.13883 10.8169ZM5.78613 7.26396H2.49152L4.13883 3.27943L5.78613 7.26396ZM9.98555 2.30802C9.67543 2.30802 9.42316 2.05576 9.42316 1.74564C9.42316 1.43552 9.67543 1.18326 9.98555 1.18326C10.2956 1.18326 10.5479 1.43552 10.5479 1.74564C10.5479 2.05576 10.2957 2.30802 9.98555 2.30802ZM15.8612 3.27943L17.5085 7.26396H14.2139L15.8612 3.27943ZM15.8612 10.8169C14.4257 10.8169 13.225 9.7922 12.9523 8.43584H18.77C18.4973 9.7922 17.2966 10.8169 15.8612 10.8169Z" fill="#5D6C7B"/>
<path d="M18.7766 7.26396L15.08 8.79219L16.1019 11.264H18.7766V7.26396ZM16.7349 2.32556L16.1956 -1.63791L11.0571 -0.93864L13.0384 3.8538L16.7349 2.32556ZM11.6177 1.1597L7.85429 2.51486L8.80665 5.1597H11.6177V1.1597ZM8.3534 1.1597V5.1597H11.1644L12.1168 2.51493L8.3534 1.1597ZM3.26512 2.32556L6.96166 3.85382L8.94296 -0.938545L3.80455 -1.6379L3.26512 2.32556ZM1.22344 7.26396V11.264H3.89809L4.91998 8.79222L1.22344 7.26396ZM7.05418 7.26396L3.35762 8.79219L4.3795 11.264H7.05418V7.26396ZM5.01504 2.33158V-1.66842H-0.966991L1.31848 3.85981L5.01504 2.33158ZM8.3534 2.33158L12.1168 0.97642L11.1645 -1.66842H8.3534V2.33158ZM11.6177 2.33158V-1.66842H8.80665L7.85429 0.97642L11.6177 2.33158ZM14.985 2.33158L18.6816 3.8598L20.967 -1.66842H14.985V2.33158ZM12.9459 7.26396V11.264H15.6205L16.6424 8.79219L12.9459 7.26396ZM1.22996 8.43584V4.43584H-3.65441L-2.69155 9.22436L1.22996 8.43584ZM7.0477 8.43584L10.9692 9.22436L11.9321 4.43584H7.0477V8.43584ZM5.78613 7.26396V11.264H11.7682L9.48268 5.73572L5.78613 7.26396ZM2.49152 7.26396L-1.20502 5.73572L-3.49054 11.264H2.49152V7.26396ZM4.13883 3.27943L7.83538 1.75118L4.13883 -7.19009L0.44228 1.75118L4.13883 3.27943ZM15.8612 3.27943L19.5577 1.75118L15.8612 -7.19009L12.1646 1.75118L15.8612 3.27943ZM17.5085 7.26396V11.264H23.4905L21.205 5.73572L17.5085 7.26396ZM14.2139 7.26396L10.5173 5.73572L8.2318 11.264H14.2139V7.26396ZM12.9523 8.43584V4.43584H8.06793L9.0308 9.22436L12.9523 8.43584ZM18.77 8.43584L22.6915 9.22436L23.6544 4.43584H18.77V8.43584ZM19.4141 3.26396H18.7766V11.264H19.4141V3.26396ZM22.4731 5.73573L20.4315 0.797329L13.0384 3.8538L15.08 8.79219L22.4731 5.73573ZM17.2743 6.28903C19.5083 5.98502 21.2413 4.07737 21.2413 1.74564H13.2413C13.2413 0.00703483 14.5334 -1.41171 16.1956 -1.63791L17.2743 6.28903ZM21.2413 1.74564C21.2413 -0.787092 19.1881 -2.8403 16.6554 -2.8403V5.1597C14.7698 5.1597 13.2413 3.63119 13.2413 1.74564H21.2413ZM16.6554 -2.8403H11.6177V5.1597H16.6554V-2.8403ZM15.3812 -0.195455C14.5889 -2.39583 12.4809 -3.98862 9.98559 -3.98862V4.01138C8.99163 4.01138 8.16497 3.37766 7.85429 2.51486L15.3812 -0.195455ZM9.98559 -3.98862C7.49022 -3.98862 5.38231 -2.3958 4.58997 -0.195525L12.1168 2.51493C11.8061 3.37771 10.9795 4.01138 9.98559 4.01138V-3.98862ZM8.3534 -2.8403H3.34465V5.1597H8.3534V-2.8403ZM3.34465 -2.8403C0.811916 -2.8403 -1.24129 -0.787092 -1.24129 1.74564H6.75871C6.75871 3.63119 5.23019 5.1597 3.34465 5.1597V-2.8403ZM-1.24129 1.74564C-1.24129 4.07761 0.492035 5.98502 2.72568 6.28902L3.80455 -1.6379C5.46648 -1.4117 6.75871 0.00679731 6.75871 1.74564H-1.24129ZM-0.431425 0.797303L-2.4731 5.7357L4.91998 8.79222L6.96166 3.85382L-0.431425 0.797303ZM1.22344 3.26396H0.585938V11.264H1.22344V3.26396ZM0.585938 3.26396C-1.9468 3.26396 -4 5.31717 -4 7.8499H4C4 9.73544 2.47148 11.264 0.585938 11.264V3.26396ZM-4 7.8499C-4 12.3412 -0.352459 15.9887 4.13883 15.9887V7.98873C4.11514 7.98873 4.10112 7.98469 4.08983 7.9799C4.07582 7.97397 4.05865 7.9633 4.04204 7.94669C4.02542 7.93008 4.01476 7.9129 4.00882 7.8989C4.00404 7.88761 4 7.87358 4 7.8499H-4ZM4.13883 15.9887C8.63012 15.9887 12.2777 12.3412 12.2777 7.8499H4.27766C4.27766 7.87358 4.27362 7.88761 4.26883 7.8989C4.2629 7.9129 4.25223 7.93008 4.23562 7.94669C4.21901 7.9633 4.20183 7.97397 4.18783 7.9799C4.17654 7.98469 4.16251 7.98873 4.13883 7.98873V15.9887ZM12.2777 7.8499C12.2777 5.31717 10.2245 3.26396 7.69172 3.26396V11.264C5.80617 11.264 4.27766 9.73544 4.27766 7.8499H12.2777ZM7.69172 3.26396H7.05418V11.264H7.69172V3.26396ZM10.7507 5.73573L8.71159 0.803352L1.31848 3.85981L3.35762 8.79219L10.7507 5.73573ZM5.01504 6.33158H8.3534V-1.66842H5.01504V6.33158ZM4.58995 3.68674C5.38229 5.88717 7.49024 7.4799 9.98559 7.4799V-0.520102C10.9795 -0.520102 11.8061 0.113567 12.1168 0.97642L4.58995 3.68674ZM9.98559 7.4799C12.4809 7.4799 14.5889 5.88712 15.3812 3.68674L7.85429 0.97642C8.16497 0.113618 8.99163 -0.520102 9.98559 -0.520102V7.4799ZM11.6177 6.33158H14.985V-1.66842H11.6177V6.33158ZM11.2884 0.803353L9.2493 5.73573L16.6424 8.79219L18.6816 3.8598L11.2884 0.803353ZM12.9459 3.26396H12.3083V11.264H12.9459V3.26396ZM12.3083 3.26396C9.77559 3.26396 7.72238 5.31717 7.72238 7.8499H15.7224C15.7224 9.73544 14.1939 11.264 12.3083 11.264V3.26396ZM7.72238 7.8499C7.72238 12.3412 11.3699 15.9887 15.8612 15.9887V7.98873C15.8375 7.98873 15.8235 7.98469 15.8122 7.9799C15.7982 7.97397 15.781 7.9633 15.7644 7.94669C15.7478 7.93008 15.7371 7.9129 15.7312 7.8989C15.7264 7.88761 15.7224 7.87358 15.7224 7.8499H7.72238ZM15.8612 15.9887C20.3525 15.9887 24 12.3411 24 7.8499H16C16 7.8736 15.996 7.88763 15.9912 7.89892C15.9852 7.91293 15.9746 7.9301 15.958 7.94671C15.9414 7.96332 15.9242 7.97398 15.9102 7.97991C15.8989 7.98469 15.8849 7.98873 15.8612 7.98873V15.9887ZM24 7.8499C24 5.31717 21.9468 3.26396 19.4141 3.26396V11.264C17.5285 11.264 16 9.73544 16 7.8499H24ZM4.13883 6.81685C4.64856 6.81685 5.05659 7.17546 5.15147 7.64731L-2.69155 9.22436C-2.0512 12.4089 0.758084 14.8169 4.13883 14.8169V6.81685ZM1.22996 12.4358H7.0477V4.43584H1.22996V12.4358ZM3.12619 7.64731C3.22107 7.17546 3.6291 6.81685 4.13883 6.81685V14.8169C7.51957 14.8169 10.3289 12.4089 10.9692 9.22436L3.12619 7.64731ZM5.78613 3.26396H2.49152V11.264H5.78613V3.26396ZM6.18807 8.79221L7.83538 4.80768L0.44228 1.75118L-1.20502 5.73572L6.18807 8.79221ZM0.44228 4.80767L2.08958 8.79221L9.48268 5.73572L7.83538 1.75118L0.44228 4.80767ZM9.98555 -1.69198C11.8846 -1.69198 13.4232 -0.153383 13.4232 1.74564H5.42316C5.42316 4.2649 7.46629 6.30802 9.98555 6.30802V-1.69198ZM13.4232 1.74564C13.4232 3.64466 11.8846 5.18326 9.98555 5.18326V-2.81674C7.46629 -2.81674 5.42316 -0.773613 5.42316 1.74564H13.4232ZM9.98555 5.18326C8.08667 5.18326 6.54793 3.64484 6.54793 1.74564H14.5479C14.5479 -0.773794 12.5046 -2.81674 9.98555 -2.81674V5.18326ZM6.54793 1.74564C6.54793 -0.153383 8.08653 -1.69198 9.98555 -1.69198V6.30802C12.5048 6.30802 14.5479 4.2649 14.5479 1.74564H6.54793ZM12.1646 4.80767L13.8119 8.79221L21.205 5.73572L19.5577 1.75118L12.1646 4.80767ZM17.5085 3.26396H14.2139V11.264H17.5085V3.26396ZM17.9104 8.79221L19.5577 4.80767L12.1646 1.75118L10.5173 5.73572L17.9104 8.79221ZM15.8612 6.81685C16.3709 6.81685 16.7789 7.17546 16.8738 7.64731L9.0308 9.22436C9.67114 12.4089 12.4804 14.8169 15.8612 14.8169V6.81685ZM12.9523 12.4358H18.77V4.43584H12.9523V12.4358ZM14.8485 7.64731C14.9434 7.17543 15.3514 6.81685 15.8612 6.81685V14.8169C19.2418 14.8169 22.0512 12.409 22.6915 9.22436L14.8485 7.64731Z" fill="#5D6C7B" mask="url(#path-1-inside-1_902_283)"/>
</svg>
